<svg width="75" height="75" viewBox="0 0 75 75" fill="none" xmlns="http://www.w3.org/2000/svg">
<path fill-rule="evenodd" clip-rule="evenodd" d="M67.3712 15.0415C70.5892 20.1422 72.4549 26.1764 72.4552 32.5917C72.4559 41.9985 68.4791 50.5062 61.9444 56.4718C59.4457 58.7529 57.4251 58.9257 54.281 57.6974C51.2179 56.501 45.8659 55.0519 43.0394 56.9808C39.263 59.5574 40.5218 58.6983 39.263 59.5574C38.1203 60.2387 36.3979 60.4374 35.0641 60.8657C33.7979 64.8085 38.9797 63.6255 40.7627 62.8746C42.3223 62.2175 43.668 61.5667 45.4308 62.0119C45.6119 63.681 44.9921 64.8942 43.8443 65.8127C38.5272 70.0672 34.0348 72.307 26.7265 70.521C25.6546 70.2589 23.0033 68.7539 22.5153 70.8165C22.4253 71.1969 22.5347 71.7296 23.2382 72.1901C27.635 73.9995 32.4501 75 37.4995 75C58.2101 75 74.9995 58.2106 74.9995 37.5C74.9995 29.0441 72.2001 21.2424 67.4783 14.9697C67.4302 14.8989 67.3206 14.9645 67.3712 15.0415Z" fill="#01A0E2"/>
<path fill-rule="evenodd" clip-rule="evenodd" d="M34.3252 66.6505C35.641 67.1923 36.9887 67.903 38.1076 68.3926L38.6431 68.6288C39.4381 68.2066 40.2061 67.7292 40.951 67.2195C39.2047 66.5778 37.235 65.7319 36.2798 65.6081C35.4636 65.5021 34.4103 65.9089 34.3252 66.6505Z" fill="#01A0E2"/>
<path fill-rule="evenodd" clip-rule="evenodd" d="M27.7031 66.9267C29.5685 67.6543 31.9909 68.9237 33.7979 69.7829L33.8004 69.7857L33.8606 69.8144L34.5584 70.1478C35.0448 70.046 35.5315 69.9169 36.0194 69.7579C36.6803 69.5424 37.3229 69.2794 37.9486 68.9797C35.4096 67.864 31.7436 65.9794 30.0912 65.6707C29.1361 65.4919 27.8184 66.0522 27.7031 66.9267Z" fill="#01A0E2"/>
<path fill-rule="evenodd" clip-rule="evenodd" d="M23.7239 69.1542C24.2822 69.1004 24.8833 69.2191 25.3871 69.3491C25.719 69.4347 26.0458 69.5366 26.3722 69.6409C26.5982 69.7132 26.8328 69.7942 27.0629 69.8504C29.2074 70.3746 31.3143 70.5984 33.4242 70.3364C30.9157 69.1376 27.32 67.3253 25.699 66.9674C24.5597 66.7153 22.9547 67.415 23.3991 68.6911C23.4462 68.8261 23.5717 69.0074 23.7239 69.1542Z" fill="#01A0E2"/>
<path fill-rule="evenodd" clip-rule="evenodd" d="M34.3252 66.6505C35.641 67.1923 36.9887 67.903 38.1076 68.3926L38.6431 68.6288C39.4381 68.2066 40.2061 67.7292 40.951 67.2195C39.2047 66.5778 37.235 65.7319 36.2798 65.6081C35.4636 65.5021 34.4103 65.9089 34.3252 66.6505Z" fill="#01A0E2"/>
<path fill-rule="evenodd" clip-rule="evenodd" d="M27.7031 66.9267C29.5685 67.6543 31.9909 68.9237 33.7979 69.7829L33.8004 69.7857L33.8606 69.8144L34.5584 70.1478C35.0448 70.046 35.5315 69.9169 36.0194 69.7579C36.6803 69.5424 37.3229 69.2794 37.9486 68.9797C35.4096 67.864 31.7436 65.9794 30.0912 65.6707C29.1361 65.4919 27.8184 66.0522 27.7031 66.9267Z" fill="#01A0E2"/>
<path fill-rule="evenodd" clip-rule="evenodd" d="M23.7239 69.1542C24.2822 69.1004 24.8833 69.2191 25.3871 69.3491C25.719 69.4347 26.0458 69.5366 26.3722 69.6409C26.5982 69.7132 26.8328 69.7942 27.0629 69.8504C29.2074 70.3746 31.3143 70.5984 33.4242 70.3364C30.9157 69.1376 27.32 67.3253 25.699 66.9674C24.5597 66.7153 22.9547 67.415 23.3991 68.6911C23.4462 68.8261 23.5717 69.0074 23.7239 69.1542Z" fill="#01A0E2"/>
<path fill-rule="evenodd" clip-rule="evenodd" d="M7.62826 59.9585C4.41029 54.8577 2.54459 48.8236 2.54427 42.4083C2.54374 33.0014 6.5204 24.4938 13.0551 18.5282C15.5538 16.2471 17.5744 16.0743 20.7185 17.3026C23.7815 18.499 29.1336 19.9481 31.9601 18.0192C35.7365 15.4427 34.4777 16.3017 35.7365 15.4426C36.8791 14.7613 38.6016 14.5625 39.9354 14.1343C41.2016 10.1915 36.0198 11.3744 34.2368 12.1254C32.6772 12.7825 31.3315 13.4333 29.5687 12.9881C29.3875 11.319 30.0073 10.1058 31.1551 9.18733C36.4723 4.93279 40.9647 2.693 48.273 4.47901C49.3449 4.74116 51.9962 6.24615 52.4842 4.18345C52.5742 3.80312 52.4648 3.27036 51.7613 2.80991C47.3645 1.00044 42.5494 0 37.5 0C16.7893 0 0 16.7893 0 37.5C0 45.9559 2.7994 53.7576 7.52123 60.0303C7.56928 60.1011 7.67889 60.0355 7.62826 59.9585Z" fill="#01A0E2"/>
<path fill-rule="evenodd" clip-rule="evenodd" d="M40.6746 8.34949C39.3588 7.8077 38.0111 7.09706 36.8922 6.6074L36.3567 6.37122C35.5617 6.79342 34.7937 7.27084 34.0488 7.78057C35.7951 8.42224 37.7648 9.26813 38.72 9.39192C39.5362 9.49796 40.5895 9.09117 40.6746 8.34949Z" fill="#01A0E2"/>
<path fill-rule="evenodd" clip-rule="evenodd" d="M47.2963 8.07331C45.4308 7.34574 43.0085 6.07623 41.2015 5.21715L41.199 5.21432L41.1388 5.18568L40.441 4.85223C39.9546 4.95405 39.4679 5.08312 38.98 5.24215C38.3191 5.4576 37.6765 5.72063 37.0508 6.02039C39.5898 7.13605 43.2558 9.02062 44.9082 9.32934C45.8633 9.50816 47.1809 8.94778 47.2963 8.07331Z" fill="#01A0E2"/>
<path fill-rule="evenodd" clip-rule="evenodd" d="M51.2756 5.84583C50.7172 5.89966 50.1161 5.78092 49.6124 5.65092C49.2805 5.5653 48.9536 5.46335 48.6272 5.35906C48.4013 5.28685 48.1666 5.20578 47.9365 5.14955C45.792 4.62539 43.6851 4.40166 41.5752 4.66363C44.0837 5.86241 47.6795 7.67466 49.3005 8.03256C50.4398 8.28465 52.0447 7.58495 51.6003 6.30895C51.5532 6.17391 51.4277 5.99255 51.2756 5.84583Z" fill="#01A0E2"/>
<path fill-rule="evenodd" clip-rule="evenodd" d="M40.6746 8.34949C39.3588 7.8077 38.0111 7.09706 36.8922 6.6074L36.3567 6.37122C35.5617 6.79342 34.7937 7.27084 34.0488 7.78057C35.7951 8.42224 37.7648 9.26813 38.72 9.39192C39.5362 9.49796 40.5895 9.09117 40.6746 8.34949Z" fill="#01A0E2"/>
<path fill-rule="evenodd" clip-rule="evenodd" d="M47.2963 8.07331C45.4308 7.34574 43.0085 6.07623 41.2015 5.21715L41.199 5.21432L41.1388 5.18568L40.441 4.85223C39.9546 4.95405 39.4679 5.08312 38.98 5.24215C38.3191 5.4576 37.6765 5.72063 37.0508 6.02039C39.5898 7.13605 43.2558 9.02062 44.9082 9.32934C45.8633 9.50816 47.1809 8.94778 47.2963 8.07331Z" fill="#01A0E2"/>
<path fill-rule="evenodd" clip-rule="evenodd" d="M51.2756 5.84583C50.7172 5.89966 50.1161 5.78092 49.6124 5.65092C49.2805 5.5653 48.9536 5.46335 48.6272 5.35906C48.4013 5.28685 48.1666 5.20578 47.9365 5.14955C45.792 4.62539 43.6851 4.40166 41.5752 4.66363C44.0837 5.86241 47.6795 7.67466 49.3005 8.03256C50.4398 8.28465 52.0447 7.58495 51.6003 6.30895C51.5532 6.17391 51.4277 5.99255 51.2756 5.84583Z" fill="#01A0E2"/>
<path fill-rule="evenodd" clip-rule="evenodd" d="M13.9014 25.9916C13.7428 26.0897 13.5268 26.1739 13.3155 26.2435C12.5248 26.5159 11.9016 26.7968 11.426 27.5586C10.9875 28.244 10.8319 29.1549 10.9651 30.0529C11.1062 31.0033 11.6403 31.4756 12.457 31.2853C13.595 31.02 14.1347 29.8499 13.9906 28.8324C13.8875 28.1377 13.4051 27.6873 12.6821 27.8558C12.2001 27.9681 11.8421 28.3093 11.6318 28.7583L11.605 28.7646C11.6425 28.4574 11.767 28.0826 11.9367 27.8261C12.3037 27.2659 12.8248 27.0902 13.3763 26.8871C13.5475 26.8269 13.7243 26.7585 13.884 26.6671L13.9014 25.9916ZM12.4593 30.6947C12.051 30.7898 11.8196 30.4437 11.7593 30.0374C11.7048 29.6704 11.7614 29.3045 11.9071 29.0265C12.0404 28.7581 12.2638 28.5365 12.5181 28.4772C12.9264 28.382 13.1359 28.7198 13.1903 29.0868C13.2731 29.6439 13.102 30.5449 12.4661 30.6931L12.4593 30.6947ZM15.0385 27.3066L14.9824 28.6556C14.9503 29.2327 14.8519 29.6896 14.6134 29.9487C14.5265 30.0639 14.3813 30.1586 14.2026 30.2139L14.3466 30.811C14.7415 30.7189 14.9736 30.5563 15.1597 30.3164C15.5118 29.9359 15.6549 29.3601 15.6997 28.4952L15.7362 27.7612L16.6332 27.5521L16.523 30.2631L17.2995 30.0821L17.4417 26.7466L15.0385 27.3066ZM21.0482 29.2084C20.9784 28.8315 20.9425 28.216 20.9662 27.7223L21.0472 25.981C20.7878 25.96 20.3965 25.9834 20.0417 26.0661C18.5221 26.4202 17.9178 27.7613 18.0793 28.8493C18.1746 29.4916 18.6223 29.8485 19.2047 29.7127C19.6197 29.616 20.0179 29.3129 20.2595 28.6532L20.2795 28.6485C20.2859 28.925 20.3038 29.1853 20.3253 29.377L21.0482 29.2084ZM20.2051 27.5403C20.1717 28.3888 19.7894 28.939 19.4279 29.0233C19.0864 29.1028 18.9185 28.8572 18.8688 28.523C18.7609 27.7954 19.1988 26.8729 19.9217 26.7044C20.0623 26.6716 20.158 26.6629 20.2412 26.6638L20.2051 27.5403ZM21.9983 26.3696C22.1864 26.2376 22.4225 26.1012 22.6835 26.0404C22.9388 25.9877 23.0902 26.0745 23.1136 26.2318C23.1476 26.4612 22.8343 26.6833 22.521 26.9055C22.0128 27.2613 21.5009 27.6383 21.5942 28.2675C21.6759 28.8181 22.1281 29.0179 22.7918 28.8699C23.1676 28.7892 23.5718 28.573 23.8239 28.3582L23.6438 27.8442C23.4641 27.9877 23.1556 28.1953 22.8344 28.2701C22.5522 28.3291 22.4199 28.2311 22.3947 28.0607C22.3577 27.8116 22.6174 27.6018 22.9737 27.3425C23.5067 26.9674 23.9555 26.5848 23.8738 26.0343C23.7999 25.5361 23.4099 25.288 22.7528 25.4343C22.3779 25.5217 22.0387 25.7092 21.8219 25.8818L21.9983 26.3696ZM25.8654 28.1605C26.9766 27.9015 27.6083 26.7914 27.4469 25.7033C27.3428 25.002 26.7961 24.492 25.9192 24.6964C24.8013 24.9569 24.1705 26.0736 24.331 27.1551C24.4438 27.9154 25.0353 28.3539 25.8587 28.162L25.8654 28.1605ZM25.8716 27.5488C25.4766 27.6408 25.1966 27.3873 25.1314 26.9482C25.0429 26.3517 25.2838 25.4548 25.9064 25.3097C26.3816 25.1989 26.5958 25.5694 26.6445 25.8972C26.7388 26.5329 26.4673 27.4099 25.8782 27.5472L25.8716 27.5488ZM28.2744 23.2999C28.5012 23.2878 28.6973 23.2556 28.8876 23.2316C29.3142 23.1661 29.6195 23.1696 29.8714 23.3278C30.1302 23.4845 30.2717 23.8313 30.3135 24.1132C30.3243 24.1852 30.3369 24.2704 30.3418 24.3505L30.3218 24.3553C30.1354 24.0325 29.8125 23.8636 29.3439 23.9729C28.3063 24.2147 27.825 25.405 27.9621 26.3292C28.0808 27.1288 28.6167 27.5193 29.4132 27.3337C30.8659 26.9952 31.1382 25.2364 30.965 24.0698C30.8794 23.493 30.6562 22.9686 30.247 22.7317C29.925 22.5219 29.546 22.4882 29.0295 22.5543C28.7712 22.5874 28.4374 22.672 28.1599 22.6688L28.2744 23.2999ZM29.4491 26.7353C29.0407 26.8305 28.8295 26.5272 28.7731 26.147C28.6838 25.5914 28.8548 24.6904 29.484 24.5437C29.8923 24.4486 30.1161 24.7897 30.1706 25.1567C30.2359 25.6434 30.0315 26.5996 29.4558 26.7338L29.4491 26.7353ZM33.3939 23.0291L33.3113 24.8995C33.2965 25.1268 33.3037 25.315 33.329 25.4853C33.4262 26.1408 33.8381 26.3025 34.3134 26.1917C34.7207 26.0968 35.0958 25.7856 35.3491 25.2994L35.3625 25.2962L35.3715 25.8705L36.0688 25.708C36.0681 25.4234 36.0653 25.0781 36.0826 24.6808L36.1842 22.3787L35.401 22.5612L35.3349 24.177C35.3002 24.8768 34.9474 25.393 34.5871 25.477C34.2792 25.5486 34.1449 25.3833 34.106 25.1212C34.0875 24.9966 34.0843 24.8347 34.0944 24.6696L34.1693 22.8483L33.3939 23.0291ZM33.9671 21.5324C33.9959 22.0073 34.258 22.3259 34.8459 22.1889C35.3625 22.0686 35.6802 21.6894 35.7209 21.1237L35.1987 21.2455C35.1669 21.497 35.0707 21.7433 34.843 21.7963C34.6288 21.8462 34.4935 21.681 34.4881 21.4111L33.9671 21.5324ZM37.0756 22.171L36.9335 25.5065L37.71 25.3256L37.7745 23.8933L38.9794 23.6125L38.9149 25.0448L39.6981 24.8622L39.8404 21.5268L39.0638 21.7078L39.0047 22.9896L37.7997 23.2704L37.8522 21.9901L37.0756 22.171ZM40.6838 21.3302L40.6013 23.2007C40.5865 23.4279 40.5937 23.616 40.6189 23.7865C40.7162 24.4419 41.128 24.6036 41.6034 24.4928C42.0105 24.398 42.3857 24.0868 42.639 23.6005L42.6524 23.5974L42.6614 24.1716L43.3588 24.0092C43.3581 23.7245 43.3553 23.3793 43.3725 22.9819L43.4741 20.6799L42.6909 20.8624L42.6249 22.4781C42.5901 23.1779 42.2374 23.6941 41.877 23.778C41.5692 23.8498 41.4348 23.6845 41.396 23.4223C41.3775 23.2977 41.3742 23.1357 41.3844 22.9706L41.4592 21.1494L40.6838 21.3302ZM44.3321 20.48L44.2495 22.3504C44.2348 22.5777 44.2419 22.7658 44.2672 22.9362C44.3645 23.5917 44.7763 23.7534 45.2516 23.6427C45.6589 23.5478 46.034 23.2365 46.2873 22.7503L46.3007 22.7471L46.3098 23.3214L47.007 23.1589C47.0063 22.8743 47.0035 22.5291 47.0209 22.1317L47.1224 19.8296L46.3393 20.0122L46.2732 21.6279C46.2384 22.3276 45.8856 22.8439 45.5253 22.9278C45.2174 22.9996 45.0832 22.8342 45.0443 22.572C45.0258 22.4475 45.0225 22.2855 45.0326 22.1205L45.1075 20.2992L44.3321 20.48ZM44.9053 18.9834C44.9341 19.4581 45.1962 19.7768 45.7841 19.6398C46.3007 19.5194 46.6185 19.1403 46.6592 18.5747L46.1369 18.6963C46.1051 18.9479 46.0089 19.1942 45.7813 19.2472C45.5671 19.2971 45.4318 19.1319 45.4263 18.862L44.9053 18.9834ZM50.6014 23.664L51.3244 23.4955L51.3788 21.8554L51.3921 21.8522C51.5074 22.022 51.7517 22.1278 52.0261 22.0638C52.9633 21.8454 53.3659 20.5446 53.216 19.5352C53.1246 18.9191 52.7963 18.4328 52.1937 18.5732C51.8724 18.6481 51.6338 18.9071 51.5061 19.12L51.4928 19.1232L51.5926 17.2759L50.8897 17.4396L50.8137 19.2611L50.8003 19.2643C50.7071 19.1029 50.5001 18.968 50.2256 19.032C49.255 19.2582 48.8479 20.6211 48.9947 21.6109C49.0988 22.3121 49.489 22.6552 49.971 22.5429C50.3258 22.4602 50.5368 22.2483 50.6749 22.0126L50.6816 22.0112L50.6014 23.664ZM50.3935 19.6031C50.5743 19.561 50.7277 19.7083 50.7596 19.8772C50.7695 19.9901 50.7774 20.09 50.7673 20.2076L50.7196 21.1004C50.7032 21.4093 50.549 21.7707 50.2344 21.844C49.9867 21.9018 49.812 21.7051 49.7585 21.3447C49.6759 20.7874 49.8447 19.7311 50.3868 19.6047L50.3935 19.6031ZM51.9984 19.2631C52.2728 19.1991 52.4035 19.4738 52.4512 19.7949C52.5368 20.3718 52.3726 21.3187 51.9022 21.4622C51.6899 21.5252 51.5345 21.3647 51.496 21.2449C51.4594 21.1856 51.4372 21.0823 51.4407 20.9662C51.4526 20.7193 51.4635 20.4659 51.4762 20.2255C51.4863 20.013 51.5098 19.8448 51.5668 19.6688C51.6658 19.449 51.8109 19.3068 51.9917 19.2646L51.9984 19.2631ZM55.2661 21.3089C56.3774 21.0499 57.009 19.9397 56.8476 18.8517C56.7435 18.1504 56.1968 17.6404 55.3199 17.8447C54.2019 18.1053 53.5712 19.222 53.7317 20.3034C53.8446 21.0638 54.436 21.5023 55.2594 21.3104L55.2661 21.3089ZM55.2723 20.6971C54.8773 20.7892 54.5973 20.5357 54.5322 20.0966C54.4436 19.5001 54.6845 18.6032 55.3071 18.4581C55.7824 18.3473 55.9966 18.7178 56.0452 19.0455C56.1396 19.6813 55.868 20.5583 55.2789 20.6956L55.2723 20.6971ZM57.6132 17.3849L57.4712 20.7204L58.2476 20.5395L58.3121 19.1072L59.517 18.8263L59.4526 20.2586L60.2358 20.0761L60.378 16.7406L59.6014 16.9216L59.5423 18.2034L58.3374 18.4842L58.3898 17.2039L57.6132 17.3849ZM61.3436 15.5934C61.5703 15.5812 61.7664 15.549 61.9567 15.5251C62.3833 15.4596 62.6886 15.463 62.9405 15.6213C63.1994 15.778 63.3408 16.1248 63.3826 16.4066C63.3934 16.4786 63.406 16.5639 63.4109 16.6441L63.3909 16.6487C63.2045 16.3261 62.8816 16.1572 62.413 16.2663C61.3754 16.5081 60.8941 17.6986 61.0312 18.6227C61.1499 19.4223 61.6858 19.8128 62.4823 19.6271C63.935 19.2886 64.2073 17.5299 64.0341 16.3633C63.9485 15.7865 63.7253 15.2622 63.3161 15.0252C62.9941 14.8154 62.6151 14.7816 62.0986 14.8477C61.8403 14.8809 61.5065 14.9654 61.229 14.9623L61.3436 15.5934ZM62.5182 19.0288C62.1098 19.124 61.8987 18.8206 61.8422 18.4405C61.7529 17.8849 61.9239 16.9839 62.5531 16.8372C62.9614 16.7421 63.1852 17.0832 63.2397 17.4503C63.305 17.9369 63.1006 18.8931 62.5249 19.0273L62.5182 19.0288ZM32.4015 26.5627L32.5437 23.2272L31.7672 23.4081L31.6184 26.7452L32.4015 26.5627ZM32.2213 22.8276C32.4823 22.7668 32.6703 22.5399 32.6352 22.2565C32.5991 22.014 32.4075 21.8892 32.1598 21.9469C31.9054 22.0062 31.7194 22.2462 31.7593 22.515C31.7953 22.7575 31.9802 22.8838 32.2145 22.8292L32.2213 22.8276Z" fill="#3E348F"/>
<path fill-rule="evenodd" clip-rule="evenodd" d="M16.2021 36.6927C16.5246 36.1504 16.936 35.6342 17.4362 35.1441C19.6533 32.972 24.2892 31.1928 27.3505 31.2573C28.1318 31.2737 28.7722 31.3979 29.2715 31.6293C29.771 31.8606 30.1477 32.1787 30.4022 32.5835C30.6563 32.9882 30.8284 33.4426 30.9183 33.9465C31.0362 34.6082 30.9919 35.2427 30.7855 35.85C30.5792 36.4574 30.2766 37.0056 29.8779 37.4945C29.4794 37.9835 29.023 38.3959 28.5087 38.7317C27.9945 39.0677 27.4832 39.296 26.9749 39.417C26.3544 39.5647 25.6664 39.6796 25.032 39.666L24.8684 43.8079L21.7033 44.7254L22.0759 35.066C21.461 35.3327 20.8983 35.6445 20.3877 36.0014C19.8774 36.3583 19.4457 36.7401 19.0933 37.147C18.7923 37.4942 18.5601 37.8551 18.3967 38.2295L16.2021 36.6927ZM27.5225 35.1488C27.4476 34.7289 27.2355 34.4373 26.8862 34.2741C26.5371 34.1109 25.9895 34.0744 25.2437 34.1642L25.109 37.4967C25.3426 37.5069 25.5918 37.4803 25.8567 37.4172C26.132 37.3516 26.3836 37.2453 26.6113 37.0981C26.839 36.9509 27.0283 36.7745 27.1793 36.5688C27.3303 36.3631 27.4365 36.1382 27.4977 35.8936C27.5592 35.6491 27.5674 35.4009 27.5225 35.1488Z" fill="#0280CA"/>
<path fill-rule="evenodd" clip-rule="evenodd" d="M31.2387 41.4507C31.4804 41.3822 31.7384 41.266 32.0129 41.1022C32.2874 40.9384 32.565 40.7464 32.8459 40.5263C33.1269 40.3061 33.4005 40.0605 33.6667 39.789C33.9331 39.5177 34.1842 39.239 34.4204 38.9529C34.5267 38.8071 34.589 38.6144 34.6071 38.3747C34.625 38.1351 34.6089 37.8736 34.5582 37.59C34.5002 37.2645 34.4049 36.915 34.272 36.5416C34.1393 36.1681 33.9822 35.7978 33.8008 35.4305C33.6194 35.0633 33.4275 34.7148 33.2254 34.3853C33.0231 34.0558 32.8203 33.7701 32.6173 33.5284C32.414 33.2867 32.2206 33.1 32.0371 32.9687C31.8537 32.8371 31.693 32.7878 31.5555 32.8206C31.5024 32.8332 31.4235 32.8546 31.3184 32.8851C31.2135 32.9156 31.109 32.9488 31.005 32.9845C30.8904 33.0227 30.7588 33.0593 30.6105 33.0946L30.3242 31.4881C30.698 31.3552 31.0612 31.2251 31.4138 31.0974C31.7154 30.9927 32.028 30.8882 32.3516 30.7838C32.6753 30.6793 32.9588 30.5983 33.2024 30.5403C33.5625 30.4546 33.9294 30.5151 34.3029 30.7216C34.6765 30.9283 35.0312 31.2461 35.3671 31.6752C35.703 32.1043 36.0027 32.624 36.2661 33.2346C36.5295 33.8451 36.7257 34.5127 36.8548 35.2373C36.8698 35.3213 36.8818 35.4033 36.8905 35.4833C36.8992 35.5632 36.911 35.6453 36.926 35.7293C37.0966 35.0757 37.2164 34.4315 37.2853 33.7966C37.3544 33.1617 37.3955 32.5717 37.4087 32.0268C37.422 31.4817 37.4208 30.9949 37.4052 30.5661C37.3895 30.1376 37.3769 29.804 37.3675 29.5654L40.7317 28.9289C40.74 29.2224 40.7004 29.6669 40.6134 30.2624C40.5262 30.8578 40.39 31.5332 40.2045 32.2891C40.0191 33.0447 39.7853 33.8392 39.5032 34.6726C39.2212 35.5059 38.8945 36.3062 38.5234 37.0732C38.1262 37.8793 37.6682 38.6396 37.1497 39.3541C36.6312 40.0686 36.0763 40.718 35.4847 41.302C34.8934 41.8862 34.2712 42.39 33.6179 42.8137C32.9648 43.2374 32.3103 43.5601 31.6542 43.7818L31.2387 41.4507Z" fill="#0280CA"/>
<path fill-rule="evenodd" clip-rule="evenodd" d="M42.2644 36.8304C42.309 35.78 42.3456 34.8078 42.374 33.9144C42.3846 33.5397 42.3946 33.1625 42.4041 32.7825C42.4138 32.4026 42.4173 32.0515 42.4151 31.729C42.4127 31.4067 42.4098 31.1256 42.4055 30.8858C42.4015 30.6458 42.39 30.4735 42.3713 30.3685C42.3582 30.2949 42.3401 30.2555 42.3172 30.25C42.2941 30.2445 42.2667 30.2456 42.2348 30.2532C42.182 30.2657 42.1109 30.2853 42.0219 30.312C41.9327 30.3387 41.8363 30.3699 41.7321 30.4057C41.6174 30.4439 41.4912 30.4793 41.3537 30.512L41.0674 28.9055C41.441 28.7727 41.8043 28.6426 42.1568 28.5148C42.4585 28.4101 42.771 28.3057 43.0947 28.2012C43.4183 28.0968 43.7019 28.0157 43.9455 27.9577C44.4645 27.8342 44.853 27.7992 45.1109 27.8527C45.3689 27.9062 45.5287 28.1064 45.5904 28.4529C45.6166 28.5999 45.6268 28.8739 45.621 29.2748C45.6153 29.6758 45.6046 30.2665 45.5892 31.0474C46.1952 30.4216 46.6791 29.7919 47.0411 29.1584C47.4029 28.525 47.5635 27.8464 47.5228 27.1227L50.8394 26.4976C50.8712 26.8622 50.8373 27.2287 50.7372 27.5972C50.6374 27.9659 50.4897 28.3294 50.2942 28.688C50.0986 29.0464 49.8605 29.3987 49.5798 29.7445C49.2993 30.0905 48.9961 30.4337 48.6703 30.774C49.5129 32.0948 50.1408 32.7062 50.5539 32.6079C50.8291 32.5423 51.1105 32.4481 51.3978 32.325C51.5528 32.2662 51.707 32.202 51.8603 32.1328L52.1775 33.9127C51.9352 34.1018 51.6741 34.2788 51.3945 34.4439C51.1553 34.5883 50.8692 34.7332 50.5362 34.878C50.2031 35.023 49.8514 35.1395 49.4807 35.2277C48.8452 35.379 48.2884 35.2597 47.8106 34.8699C47.3326 34.4801 46.8272 33.8124 46.2942 32.8664L45.5225 33.4606L45.4614 35.9053L42.2644 36.8304Z" fill="#0280CA"/>
<path fill-rule="evenodd" clip-rule="evenodd" d="M63.7905 31.1487C63.5482 31.3377 63.2873 31.5147 63.0075 31.6798C62.7683 31.8243 62.4849 31.9684 62.1573 32.112C61.8295 32.2558 61.475 32.3729 61.0937 32.4637C60.3629 32.6376 59.7988 32.6159 59.4013 32.3987C59.0037 32.1812 58.7676 31.8626 58.6927 31.4425C58.6571 31.243 58.6434 30.9342 58.6517 30.5164C58.6601 30.0984 58.7031 29.612 58.7809 29.057C58.5629 29.3827 58.3552 29.6729 58.1577 29.9278C57.8713 30.3026 57.5558 30.7005 57.2113 31.122C56.867 31.5432 56.5372 31.9391 56.2223 32.3096C55.9075 32.6802 55.6243 32.9965 55.3731 33.2588C55.1217 33.5212 54.9469 33.6859 54.8485 33.7532L53.258 34.2137C53.287 33.1998 53.3124 32.2579 53.3339 31.388C53.3445 31.0133 53.3524 30.6393 53.3575 30.2659C53.3626 29.8925 53.3641 29.5445 53.3619 29.222C53.3598 28.8997 53.3524 28.6113 53.3402 28.3569C53.3281 28.1026 53.3099 27.9073 53.2855 27.7708C53.2724 27.6972 53.2543 27.6578 53.2312 27.6523C53.2082 27.6468 53.1807 27.6479 53.1489 27.6555C53.096 27.6681 53.0197 27.6889 52.92 27.7181C52.8204 27.7473 52.7238 27.7786 52.6304 27.8118C52.5158 27.85 52.3949 27.8841 52.2678 27.9144L51.9814 26.3078C52.3552 26.175 52.7185 26.0448 53.0711 25.9171C53.3725 25.8124 53.6852 25.708 54.0088 25.6036C54.3324 25.4991 54.6161 25.418 54.8597 25.36C55.3785 25.2365 55.7511 25.2053 55.9773 25.2664C56.2036 25.3274 56.3474 25.5314 56.4092 25.8779C56.4522 26.1194 56.4867 26.5599 56.5123 27.1997C56.538 27.8395 56.4757 28.6041 56.325 29.4938L57.0957 28.5222C57.414 28.14 57.7198 27.7497 58.0133 27.3515C58.3067 26.9533 58.5827 26.5674 58.8419 26.1937C59.101 25.8201 59.3395 25.4706 59.5575 25.145C59.7755 24.8194 59.962 24.5342 60.1172 24.2893L61.8665 23.7908C61.7907 24.7283 61.7283 25.5861 61.6792 26.364C61.6507 26.6991 61.6275 27.0332 61.6094 27.3658C61.5914 27.6986 61.5798 28.0051 61.5746 28.2853C61.5693 28.5658 61.566 28.8102 61.5644 29.0185C61.563 29.2268 61.5706 29.3783 61.5874 29.4727C61.6454 29.7984 61.8386 29.922 62.1669 29.8438C62.4529 29.7757 62.7394 29.6803 63.0267 29.5571C63.1818 29.4983 63.3306 29.4355 63.4733 29.3688L63.7905 31.1487Z" fill="#0280CA"/>
<path fill-rule="evenodd" clip-rule="evenodd" d="M50.3345 37.6512C50.2915 37.4301 50.3064 37.2091 50.3792 36.9877C50.452 36.7665 50.5618 36.5648 50.7086 36.3826C50.8552 36.2004 51.0341 36.0412 51.2449 35.9052C51.4558 35.769 51.6723 35.6768 51.8949 35.6283C52.3502 35.5291 52.7409 35.5793 53.0668 35.7787C53.3925 35.9783 53.6005 36.3087 53.6903 36.77C53.7334 36.991 53.7184 37.2121 53.6456 37.4333C53.5728 37.6546 53.463 37.8563 53.3165 38.0385C53.1697 38.2208 52.9935 38.3794 52.788 38.5143C52.5825 38.6492 52.3685 38.7409 52.146 38.7894C51.6906 38.8886 51.2973 38.839 50.9661 38.6405C50.6349 38.4423 50.4244 38.1125 50.3345 37.6512Z" fill="#0280CA"/>
<path fill-rule="evenodd" clip-rule="evenodd" d="M55.5493 46.8993C55.3176 47.0859 55.0618 47.2617 54.7822 47.4267C54.543 47.5711 54.2569 47.716 53.9239 47.8609C53.591 48.0058 53.239 48.1223 52.8684 48.2106C52.18 48.3744 51.6124 48.3645 51.1656 48.1807C50.7189 47.9971 50.4544 47.6741 50.3721 47.212C50.3291 46.9705 50.3157 46.6179 50.3324 46.1543C50.3493 45.6904 50.3733 45.2059 50.4047 44.7004C50.436 44.1948 50.4609 43.7154 50.4795 43.2621C50.498 42.8089 50.4868 42.4669 50.4456 42.2358C50.4325 42.1622 50.4144 42.1229 50.3914 42.1174C50.3682 42.1119 50.341 42.1129 50.3092 42.1206C50.2561 42.1332 50.1851 42.1527 50.096 42.1794C50.007 42.2061 49.9104 42.2374 49.8064 42.2731C49.6918 42.3114 49.5656 42.3467 49.4279 42.3795L49.1416 40.773C49.4942 40.6452 49.8414 40.5188 50.1835 40.3936C50.4745 40.2914 50.7791 40.1889 51.0974 40.0857C51.4158 39.9825 51.6968 39.902 51.9404 39.844C52.4592 39.7205 52.8478 39.6855 53.1057 39.7391C53.3637 39.7926 53.5235 39.9927 53.5852 40.3392C53.6114 40.4863 53.6215 40.6973 53.6153 40.9724C53.6093 41.2476 53.5941 41.5495 53.5697 41.8781C53.5456 42.2068 53.518 42.5473 53.4867 42.8995C53.4557 43.2516 53.4267 43.5842 53.3996 43.8973C53.3726 44.2101 53.3527 44.4858 53.3401 44.7241C53.3273 44.9625 53.3294 45.129 53.3462 45.2235C53.3724 45.3705 53.4305 45.4799 53.5206 45.5515C53.6107 45.623 53.7457 45.6374 53.9257 45.5945C54.0104 45.5744 54.1254 45.5389 54.271 45.4878C54.4164 45.4367 54.5615 45.3831 54.7061 45.3267C54.8717 45.2654 55.0471 45.1962 55.2321 45.1195L55.5493 46.8993Z" fill="#0280CA"/>
<path fill-rule="evenodd" clip-rule="evenodd" d="M61.8425 43.0328C61.8163 42.8859 61.7695 42.7628 61.7022 42.6639C61.635 42.5649 61.5683 42.485 61.5022 42.4242C61.4 42.4705 61.3172 42.5011 61.2536 42.5162C60.767 42.6977 60.3408 42.8456 59.9748 42.9601C59.6088 43.0747 59.326 43.161 59.1267 43.2194C59.1692 43.3955 59.2402 43.562 59.34 43.7187C59.4397 43.8757 59.5621 44.0053 59.7072 44.1074C59.8524 44.2097 60.0195 44.2794 60.2084 44.3167C60.3971 44.3538 60.5974 44.3472 60.8091 44.2967C61.1798 44.2085 61.4583 44.0521 61.6447 43.827C61.8308 43.602 61.8967 43.3374 61.8425 43.0328ZM60.1212 39.1271C59.341 39.7871 59.1036 40.8838 59.0602 41.8231C60.029 41.5996 61.9032 40.6733 61.8371 39.3418C61.7895 38.3832 60.7586 38.5884 60.1212 39.1271ZM55.9177 43.9832C55.7748 43.1217 55.8154 42.288 56.0197 41.4874C56.2241 40.6873 56.5583 39.9562 57.0222 39.296C57.4862 38.6356 58.0581 38.063 58.7377 37.5789C59.801 36.8213 61.1935 36.3208 62.4687 36.3016C63.5414 36.2858 64.7937 36.6946 64.957 37.8994C65.1517 39.3356 64.3581 40.3466 63.2919 41.1519C64.6377 41.2686 65.0267 42.1043 64.6435 43.417C64.5177 43.8477 64.2353 44.2394 63.8896 44.6226C63.5438 45.006 63.1031 45.3517 62.5675 45.6599C62.0316 45.9679 61.4249 46.2027 60.7471 46.364C60.0904 46.5203 59.485 46.5769 58.9309 46.5336C58.3766 46.4903 57.8897 46.3599 57.47 46.1424C57.0504 45.9249 56.7087 45.6339 56.445 45.2699C56.1815 44.9056 55.9998 44.4775 55.9177 43.9832Z" fill="#0280CA"/>
<path fill-rule="evenodd" clip-rule="evenodd" d="M42.5341 45.3549C43.3739 45.1111 44.0413 44.8757 44.5363 44.6483C45.0311 44.4211 45.2543 44.1709 45.2057 43.8979C45.1757 43.73 45.0527 43.6279 44.8364 43.5917C44.6203 43.5556 44.2633 43.5967 43.7655 43.7152C43.5006 43.7783 43.2361 43.8577 42.9716 43.9535C42.7071 44.0493 42.4675 44.1445 42.2526 44.2396C41.9952 44.3446 41.7451 44.4588 41.5022 44.5824L41.1541 42.6292C41.3808 42.4767 41.6509 42.3193 41.9642 42.1572C42.2284 42.0287 42.5538 41.8883 42.9406 41.7359C43.3276 41.5837 43.7753 41.447 44.2835 41.326C45.5333 41.0285 46.4879 40.9956 47.1475 41.2272C47.8071 41.4589 48.1985 41.9212 48.322 42.6143C48.3744 42.9084 48.3033 43.2674 48.1082 43.6915C47.9133 44.1155 47.558 44.553 47.0423 45.0043C47.4709 45.0555 47.8224 45.1853 48.0969 45.3937C48.3716 45.6019 48.5424 45.8951 48.6097 46.2731C48.6846 46.6932 48.6392 47.1035 48.4731 47.5043C48.3071 47.905 48.0507 48.278 47.7039 48.6233C47.3569 48.9687 46.942 49.2726 46.4588 49.5353C45.9756 49.7982 45.4587 49.9951 44.908 50.1262C44.1984 50.2951 43.6009 50.3798 43.1151 50.3806C42.6294 50.3813 42.2358 50.3407 41.9343 50.2593C41.5778 50.18 41.2856 50.0578 41.0576 49.8932L41.7291 47.9929C41.9528 48.071 42.2001 48.1271 42.4711 48.1611C42.6981 48.1947 42.9626 48.2083 43.2651 48.202C43.5675 48.1957 43.8882 48.1523 44.2272 48.0717C44.6615 47.9683 45.0168 47.8098 45.2934 47.5961C45.5699 47.3825 45.6896 47.1706 45.6522 46.9607C45.6185 46.7715 45.4258 46.6669 45.0745 46.6466C44.7231 46.6263 44.2773 46.6804 43.7371 46.809L43.5624 46.8505C43.3245 46.9399 43.0837 47.0137 42.8401 47.0717L42.5341 45.3549Z" fill="#0280CA"/>
<path fill-rule="evenodd" clip-rule="evenodd" d="M30.9086 55.1167C31.1503 55.0482 31.4084 54.9319 31.6828 54.7681C31.9573 54.6043 32.235 54.4123 32.5158 54.1922C32.7969 53.972 33.0705 53.7264 33.3366 53.4549C33.603 53.1836 33.8542 52.9049 34.0903 52.6189C34.1966 52.473 34.2589 52.2803 34.277 52.0406C34.2949 51.8011 34.2788 51.5396 34.2281 51.2559C34.1701 50.9305 34.0748 50.581 33.9419 50.2075C33.8093 49.8341 33.6521 49.4638 33.4707 49.0964C33.2893 48.7292 33.0975 48.3807 32.8953 48.0512C32.6931 47.7217 32.4902 47.436 32.2872 47.1944C32.084 46.9526 31.8906 46.766 31.707 46.6346C31.5237 46.503 31.363 46.4537 31.2254 46.4865C31.1724 46.4991 31.0935 46.5206 30.9883 46.5511C30.8834 46.5816 30.7789 46.6147 30.6749 46.6504C30.5602 46.6887 30.4288 46.7252 30.2805 46.7606L29.9941 45.154C30.3679 45.0212 30.7312 44.8911 31.0837 44.7633C31.3854 44.6586 31.6979 44.5541 32.0214 44.4498C32.3452 44.3453 32.6288 44.2642 32.8723 44.2062C33.2325 44.1205 33.5994 44.181 33.9728 44.3875C34.3465 44.5942 34.7011 44.912 35.0371 45.3411C35.3729 45.7702 35.6726 46.29 35.936 46.9005C36.1994 47.5111 36.3956 48.1787 36.5248 48.9032C36.5398 48.9872 36.5517 49.0693 36.5604 49.1491C36.5691 49.2291 36.5809 49.3112 36.5959 49.3952C36.7665 48.7416 36.8864 48.0974 36.9553 47.4625C37.0243 46.8276 37.0654 46.2376 37.0787 45.6927C37.0919 45.1477 37.0908 44.6608 37.0751 44.2321C37.0594 43.8035 37.0468 43.4698 37.0375 43.2313L40.4016 42.5948C40.4099 42.8883 40.3704 43.3329 40.2833 43.9283C40.1962 44.5237 40.06 45.1992 39.8744 45.955C39.689 46.7106 39.4553 47.5051 39.1731 48.3385C38.8912 49.1719 38.5644 49.9721 38.1933 50.7392C37.7961 51.5452 37.3382 52.3056 36.8197 53.02C36.3011 53.7345 35.7462 54.3839 35.1546 54.968C34.5633 55.5521 33.9411 56.056 33.2878 56.4797C32.6347 56.9033 31.9802 57.226 31.324 57.4478L30.9086 55.1167Z" fill="#0280CA"/>
<path fill-rule="evenodd" clip-rule="evenodd" d="M24.669 49.7747C24.6553 50.194 24.6404 50.6518 24.6241 51.1483C24.6075 51.6448 24.5923 52.1629 24.5782 52.7027C24.755 52.7044 24.9548 52.6787 25.1771 52.6258C25.5373 52.54 25.8645 52.3937 26.1587 52.1868C26.4531 51.9799 26.6951 51.728 26.8853 51.431C27.0752 51.134 27.2065 50.8019 27.279 50.4343C27.3513 50.0667 27.3511 49.6783 27.2783 49.2687C27.2277 48.9851 27.1078 48.7454 26.9183 48.5497C26.7288 48.354 26.4171 48.3078 25.9828 48.4111C25.7604 48.4641 25.5693 48.5534 25.4096 48.679C25.2497 48.8046 25.1187 48.937 25.0168 49.0762C24.9146 49.2155 24.8367 49.3517 24.7831 49.485C24.7295 49.6181 24.6913 49.7146 24.669 49.7747ZM21.5186 49.6133C21.5158 49.258 21.5054 49.0281 21.4867 48.9231C21.4736 48.8495 21.4555 48.8101 21.4324 48.8046C21.4094 48.7992 21.3819 48.8002 21.3502 48.8078C21.2973 48.8204 21.2208 48.8412 21.1212 48.8704C21.0216 48.8996 20.925 48.931 20.8316 48.9641C20.7169 49.0023 20.596 49.0365 20.4689 49.0667L20.1826 47.4602C20.5564 47.3274 20.9196 47.1972 21.2722 47.0694C21.5737 46.9648 21.8864 46.8603 22.21 46.7559C22.5336 46.6514 22.8172 46.5703 23.0609 46.5123C23.5799 46.3888 23.9655 46.3545 24.2183 46.4093C24.4709 46.464 24.6281 46.6647 24.6899 47.0112C24.7011 47.0742 24.7064 47.2126 24.7059 47.4262C24.7052 47.6397 24.7022 47.917 24.6966 48.2576L24.7444 48.2462C24.7879 47.8089 24.9129 47.396 25.1197 47.0075C25.2934 46.6815 25.5579 46.3531 25.913 46.0224C26.268 45.6915 26.7579 45.4517 27.3828 45.303C27.9335 45.1719 28.3974 45.1573 28.7743 45.2593C29.1514 45.361 29.4604 45.531 29.7015 45.7691C29.9428 46.0073 30.1291 46.2942 30.2607 46.6295C30.3922 46.9649 30.4869 47.2954 30.5449 47.6209C30.6815 48.3875 30.6624 49.1473 30.4876 49.9005C30.3126 50.6536 29.993 51.3537 29.5287 52.0006C29.0645 52.6475 28.4618 53.2151 27.7207 53.7034C26.9798 54.1918 26.1168 54.5531 25.1318 54.7876C25.0153 54.8153 24.9062 54.8387 24.8047 54.8573C24.7032 54.876 24.5515 54.8966 24.4562 54.9193C24.4287 56.1469 24.3373 57.6443 24.3141 58.8681L21.128 59.7971C21.2005 57.9736 21.2924 56.0451 21.3422 54.544L21.5186 49.6133Z" fill="#0280CA"/>
<path fill-rule="evenodd" clip-rule="evenodd" d="M16.1489 50.1936C16.0287 50.2003 15.9172 50.2104 15.8148 50.2237C15.7123 50.2372 15.6081 50.2565 15.5022 50.2818C15.1421 50.3674 14.8161 50.5053 14.5243 50.6952C14.2324 50.8851 13.9892 51.1153 13.7945 51.386C13.5999 51.6568 13.464 51.9628 13.3868 52.3042C13.3096 52.6454 13.3057 53.0104 13.3748 53.3988C13.4404 53.7663 13.5685 54.067 13.7592 54.3008C13.95 54.5345 14.2624 54.5997 14.6965 54.4964C14.8977 54.4485 15.0792 54.3669 15.2409 54.2519C15.4026 54.1368 15.5401 54.0109 15.6539 53.8744C15.7675 53.7379 15.8596 53.6039 15.9298 53.4721C16.0004 53.3404 16.0512 53.2381 16.0822 53.1649L16.1489 50.1936ZM19.151 55.9813C19.1362 56.6416 19.026 57.2616 18.8201 57.8415C18.6144 58.4214 18.3108 58.9479 17.9094 59.4211C17.5078 59.8943 17.0125 60.305 16.4232 60.6534C15.8338 61.0016 15.142 61.2701 14.3478 61.4592C13.7229 61.608 13.1748 61.6919 12.7034 61.7111C12.2322 61.7303 11.8326 61.7186 11.5048 61.6762C11.1328 61.6334 10.804 61.5529 10.518 61.435L11.1474 59.2984C11.3585 59.3686 11.6092 59.4128 11.8997 59.4312C12.1351 59.4517 12.4196 59.4524 12.7529 59.4333C13.0862 59.4141 13.4542 59.3568 13.8565 59.261C14.2062 59.1777 14.5228 59.0504 14.8069 58.8787C15.091 58.7071 15.329 58.478 15.5209 58.1916C15.7127 57.9052 15.8531 57.5625 15.9421 57.1637C16.031 56.7649 16.0596 56.29 16.0276 55.7394L16.0461 54.6347L15.9825 54.65C15.9515 55.0953 15.8431 55.5097 15.6575 55.8931C15.576 56.0549 15.4781 56.2177 15.3637 56.3817C15.2496 56.5457 15.1064 56.703 14.9346 56.8534C14.7626 57.0038 14.5657 57.1381 14.3441 57.2567C14.1222 57.3751 13.863 57.4696 13.5664 57.5403C13.0264 57.6688 12.5537 57.68 12.1484 57.574C11.7431 57.468 11.3994 57.2898 11.1175 57.0395C10.8354 56.7891 10.613 56.4863 10.4504 56.1309C10.2877 55.7755 10.1735 55.414 10.108 55.0465C9.98262 54.343 10.0128 53.6298 10.1987 52.9068C10.3844 52.184 10.711 51.5069 11.1781 50.8758C11.6453 50.2446 12.2494 49.6849 12.9903 49.1966C13.7313 48.7083 14.5941 48.3468 15.5792 48.1124C16.1828 47.9687 16.7128 47.8754 17.1687 47.8327C17.6248 47.7897 18.0077 47.7698 18.3174 47.7727C18.6837 47.7839 18.998 47.8131 19.2604 47.8601L19.151 55.9813Z" fill="#0280CA"/>
</svg>
